<?xml version="1.0" standalone="no"?>
<!DOCTYPE svg PUBLIC "-//W3C//DTD SVG 20010904//EN"
 "http://www.w3.org/TR/2001/REC-SVG-20010904/DTD/svg10.dtd">
<svg version="1.0" xmlns="http://www.w3.org/2000/svg"
 width="210.000000pt" height="210.000000pt" viewBox="0 0 210.000000 210.000000"
 preserveAspectRatio="xMidYMid meet">
<metadata>
Created by potrace 1.14, written by Peter Selinger 2001-2017
</metadata>
<g transform="translate(0.000000,210.000000) scale(0.100000,-0.100000)"
fill="#000000" stroke="none">
<path d="M915 2093 c-16 -2 -64 -13 -106 -23 -313 -77 -565 -280 -705 -567
-142 -292 -135 -656 18 -944 135 -253 390 -455 663 -524 109 -27 131 -30 280
-29 154 1 255 20 385 74 409 169 663 569 645 1015 -4 118 -7 140 -31 225 -87
319 -319 580 -621 703 -117 48 -228 69 -368 72 -71 1 -143 0 -160 -2z"/>
</g>
</svg>
